<?xml version="1.0" encoding="UTF-8" standalone="no"?>
<svg
   xmlns:dc="http://purl.org/dc/elements/1.1/"
   xmlns:cc="http://creativecommons.org/ns#"
   xmlns:rdf="http://www.w3.org/1999/02/22-rdf-syntax-ns#"
   xmlns:svg="http://www.w3.org/2000/svg"
   xmlns="http://www.w3.org/2000/svg"
   xmlns:sodipodi="http://sodipodi.sourceforge.net/DTD/sodipodi-0.dtd"
   xmlns:inkscape="http://www.inkscape.org/namespaces/inkscape"
   inkscape:version="1.0rc1 (09960d6f05, 2020-04-09)"
   sodipodi:docname="logo-np.svg"
   id="svg8"
   version="1.1"
   viewBox="0 0 207.05603 189.05476"
   height="189.05476mm"
   width="207.05603mm">
  <defs
     id="defs2"><path
   inkscape:connector-curvature="0"
   id="SVGID_3_"
   d="m 1928.6,236.1 2.6,-5 c 0,0 -6.8,-3.6 -7.5,-7.4 -0.7,-3.7 2.5,-4.6 2.5,-4.6 l -5.4,-10.3 -15.4,-10.2 -10.7,2.8 2.5,2.6 c 0,0 -1.5,1.8 -1.7,1.9 v 0 c -0.2,0 -12.1,-10 -12.1,-10 l -8,-0.2 0.1,-4.3 0.2,-3.1 -8.2,-2.2 c 0,0 0.1,0.4 -1.3,2 -0.6,0.6 -1.2,0.8 -1.8,0.8 -0.9,0 -1.7,-0.4 -1.7,-0.4 l -7.3,-4.8 -0.4,0.2 -0.8,-1 -0.3,-0.4 -3.2,-3.8 -5,-5.1 v 0 c 0.1,0 0.5,-0.2 2,-4.1 1.6,-4.3 0.6,-6.1 0.6,-6.1 l -5.4,-0.1 0.3,-17.3 -4.6,-0.1 2.1,-2.3 c 0,0 -1.4,-0.6 -2.3,-3.6 -0.9,-3.1 2.3,-5.8 2.3,-5.8 l 0.1,-8.9 -2.1,-4 -1,-0.3 0.6,-2.5 -12.6,-0.1 c 0,0 -0.4,-5.9 -3.9,-9.1 -1,-0.9 -2.6,-1 -3.2,-1 -0.2,0 -0.3,0 -0.3,0 l -0.2,-2.6 c 0,0 -1.9,-1 -5.9,-2 -1.5,-0.3 -2.8,-0.5 -3.9,-0.5 -1.8,0 -3,0.3 -3,0.3 l -7.8,12.2 -7.6,-0.1 -2.5,2.4 -7.4,-2.6 -2.8,3.4 2.6,6.9 -2.5,-0.1 -0.2,12.2 -4.7,-4.4 -8.2,-0.1 c 0,0 -2.3,1.9 -5.1,4.1 -1.2,1 -2.2,1.2 -3.1,1.2 -1.1,0 -1.7,-0.5 -1.7,-0.5 l -4.7,5 -4.5,-2.7 c 0,0 -8.1,7.1 -9.8,8.2 -0.4,0.2 -0.8,0.3 -1.2,0.3 -1.4,0 -2.6,-1 -2.6,-1 0,0 -1.1,0.8 -1.7,2.2 -0.7,1.4 -0.3,2.7 -0.2,3 0,0.2 -0.3,0.2 -0.7,0.2 -0.6,0 -1.2,-0.1 -1.2,-0.1 l 0.1,-2.5 -5.2,-0.1 0.1,2.2 c 0,0 -0.7,-0.2 -1.6,-1.4 -0.9,-1.2 -0.6,-3.4 -0.6,-3.4 l -5.5,-0.1 -0.2,2.9 c 0,0 -1.3,-1.2 -2.1,-3.3 -0.8,-2.1 -0.1,-4.7 -0.1,-4.7 l -2.6,0.1 0.3,-2.5 c 0,0 -0.7,-0.2 -1.7,-0.2 -0.3,0 -0.6,0 -0.9,0.1 -1.2,0.2 -2.1,2.1 -2.1,2.1 l -0.7,2.9 c 0,0 -0.2,-0.7 -0.8,-2.2 -0.7,-1.6 -1.6,-2.8 -1.6,-2.8 l -3.2,2.8 0.2,7.6 2.6,0.8 v 8.8 c 0,0 -1.2,-0.2 -4,-0.2 0,0 0,0 -0.1,0 -2.7,0 -3.3,2.8 -3.3,2.8 l 0.1,5.6 c 0,0 -0.8,-0.3 -1.6,-0.3 -0.3,0 -0.7,0.1 -1,0.3 -0.9,0.7 0,2.9 0,2.9 0,0 2.6,0.6 2.6,3.4 0,2.8 -2.9,3.6 -2.9,3.6 0,0 -0.3,-0.6 -1.2,-0.6 -0.1,0 -0.2,0 -0.4,0.1 -0.6,0.2 -1.7,0.7 -2.9,3.5 -1.2,2.8 -2.8,7.6 -2.8,7.6 0,0 1.6,1.3 3.5,4.5 1.8,3.2 3.2,7.6 3.2,7.6 l 1,7.9 5,4.5 -2.8,4.9 -2.5,-0.2 c 0,0 -0.8,1.7 -2.1,6.3 -1.2,4.5 2.2,6.4 2.2,6.4 l -0.2,7.8 -2.6,5.4 v 0 c 0.2,0 1.8,0 4,1.3 2.2,1.4 3.1,3.7 3.1,3.7 l 5.9,-2.5 2.5,3.1 3.4,-3.6 -3.1,-2.1 7.2,-2.1 4.8,6.9 5.5,-2.3 4.8,2.6 2.1,1.6 5.5,0.9 c 0,0 0.2,-1.6 2.1,-2.6 0.5,-0.2 1.1,-0.4 1.5,-0.4 1.2,0 1.9,0.7 1.9,0.7 l 7.4,-7.3 5.4,-0.3 -0.2,-2.7 h 4.5 l -3,7.8 h 8.5 l 4.5,4.4 0.3,-4.8 2.2,0.1 0.2,0.3 c -1.3,-2.5 -3,-4.7 -5,-6.9 -11.6,-9.9 -29.1,-20.4 -45.5,-34 0,0 -2.4,-4.4 40.7,21.3 0,0 34.2,14.4 -11.6,-42.7 0,0 21.7,10.9 35.9,39.1 -0.1,-10.4 -1,-21.7 -4.1,-27.8 -2.8,-5.5 -7.3,-16.4 -26.8,-31.8 0,0 4.2,2 27.4,16.5 0,0 4,-4 -7.7,-28.2 0,0 19.7,15.5 21,47.7 12.6,-31.1 44.2,-38.5 44.2,-38.5 -36.3,30.1 -24.9,30.8 -24.9,30.8 1.8,0.7 29.3,-7.2 39.1,-10 h 0.1 l 0.4,0.5 c -9.5,4.8 -16.8,7.8 -22.5,10.7 -9.3,6.4 -14.9,15.2 -19.7,24.5 -2.8,5.5 -6.7,16.8 -9.9,27.3 -2.6,10.4 -4.7,19.4 -5.2,21.2 0.6,7.4 0.6,15.4 -0.2,24 3.1,0.7 6.3,0.7 6.3,0.7 l 10.7,-0.2 0.2,-9.3 9.3,-0.4 -2.8,2.6 5.1,5.3 0.2,3.8 2.5,2.1 0.2,-2.7 c 0,0.2 0.1,1 1.8,3.3 2.1,2.7 5.9,4 5.9,4 l 2.1,-2.6 3.1,2.3 5,-2.2 4.3,5 v 0 c -0.1,0 -0.6,0.1 -2.3,2.4 -1.8,2.5 -2.6,4.5 -2.6,4.5 l -2.2,-2.1 c 0,0 -0.5,1.7 -0.6,3.6 -0.1,1.9 0.2,4 0.2,4 h 2.6 l 2.6,5 c 0,0 0,0.6 -0.1,2 -0.1,1.4 0.1,2.6 0.1,2.6 l -3,2.6 3.2,3.1 c 0,0 2.8,0.3 5.1,0.3 2.3,0 5.5,-0.3 5.5,-0.3 l 2.1,-3.3 h -2.3 c 0,0 0.6,-0.9 1.5,-2.1 0.9,-1.2 1.2,-2.2 1.2,-2.2 l 1.7,2.4 h 0.3 v -2.2 h 2.4 l 2.2,2.5 c 0,0 0.1,0.1 0.3,0.1 0.2,0 0.7,-0.1 1.1,-0.5 0.8,-0.7 -0.4,-2.1 -0.4,-2.1 l 4.9,-2.1 -2.7,-3.5 -5,0.1 c 0,0 -1.9,-5 -2.5,-7.3 -0.6,-2.3 -0.5,-5.1 -0.5,-5.1 l 0.2,-2.1 c 0,0 0.8,-0.5 2,-0.5 1.2,0 2.6,0.6 2.6,0.6 l 0.2,-3.1 1.5,-0.2 c 0,0 -0.6,1.7 0.9,2.6 0.6,0.3 1.2,0.4 1.6,0.4 0.7,0 1.3,-0.2 1.3,-0.2 l 0.2,-2.1 9.3,0.1 c 0,0 0.1,0 0.2,0 0.2,0 0.9,-0.2 2.2,-1.7 1.8,-2.1 0.4,-4.6 0.4,-4.6 l 0.4,-1.8 c 0,0 1.5,0.6 2.6,0.6 0.2,0 0.3,0 0.5,0 1.1,0 2.2,-0.1 2.2,-0.1 l -2.6,-3.1 4.7,-5 -2.2,-3.1 4.5,-4 0.3,-5.4 4.8,-2.6 v -4.2 l 2.7,1.7 4.5,-6.9 0.6,-3.2 c 0,0 -0.4,-0.2 1.6,-0.7 2.1,-0.5 3.2,-1.7 3.2,-1.7 l -0.5,-2.2 c 0,0 1.2,-0.1 4.1,-0.3 0.5,-0.1 1,-0.1 1.5,-0.1 1.9,0 2.9,0.3 2.9,0.3 l 11,-13.7 z m -167,-24.9 c 3.9,0 7.1,3.2 7.3,7.2 0.2,4 -2.8,7.1 -6.7,7.1 -3.9,0 -7.2,-3.2 -7.4,-7.2 0,-4 2.9,-7.2 6.8,-7.1 z m 13.5,-44.6 c 2.2,0.1 4.2,2 4.3,4.3 0.1,2.3 -1.7,4.1 -4,4.1 -2.2,-0.1 -4.2,-2 -4.3,-4.3 -0.1,-2.4 1.7,-4.2 4,-4.1 z m 55.2,18.2 c -0.7,2.5 -3.4,3.8 -5.9,3 -2.5,-0.8 -3.8,-3.6 -3.1,-6.1 0.7,-2.5 3.4,-3.8 5.9,-3 2.7,0.9 4,3.7 3.1,6.1 z" />
<path
   inkscape:connector-curvature="0"
   id="SVGID_5_"
   d="m 1928.6,236.1 2.6,-5 c 0,0 -6.8,-3.6 -7.5,-7.4 -0.7,-3.7 2.5,-4.6 2.5,-4.6 l -5.4,-10.3 -15.4,-10.2 -10.7,2.8 2.5,2.6 c 0,0 -1.5,1.8 -1.7,1.9 v 0 c -0.2,0 -12.1,-10 -12.1,-10 l -8,-0.2 0.1,-4.3 0.2,-3.1 -8.2,-2.2 c 0,0 0.1,0.4 -1.3,2 -0.6,0.6 -1.2,0.8 -1.8,0.8 -0.9,0 -1.7,-0.4 -1.7,-0.4 l -7.3,-4.8 -0.4,0.2 -0.8,-1 -0.3,-0.4 -3.2,-3.8 -5,-5.1 v 0 c 0.1,0 0.5,-0.2 2,-4.1 1.6,-4.3 0.6,-6.1 0.6,-6.1 l -5.4,-0.1 0.3,-17.3 -4.6,-0.1 2.1,-2.3 c 0,0 -1.4,-0.6 -2.3,-3.6 -0.9,-3.1 2.3,-5.8 2.3,-5.8 l 0.1,-8.9 -2.1,-4 -1,-0.3 0.6,-2.5 -12.6,-0.1 c 0,0 -0.4,-5.9 -3.9,-9.1 -1,-0.9 -2.6,-1 -3.2,-1 -0.2,0 -0.3,0 -0.3,0 l -0.2,-2.6 c 0,0 -1.9,-1 -5.9,-2 -1.5,-0.3 -2.8,-0.5 -3.9,-0.5 -1.8,0 -3,0.3 -3,0.3 l -7.8,12.2 -7.6,-0.1 -2.5,2.4 -7.4,-2.6 -2.8,3.4 2.6,6.9 -2.5,-0.1 -0.2,12.2 -4.7,-4.4 -8.2,-0.1 c 0,0 -2.3,1.9 -5.1,4.1 -1.2,1 -2.2,1.2 -3.1,1.2 -1.1,0 -1.7,-0.5 -1.7,-0.5 l -4.7,5 -4.5,-2.7 c 0,0 -8.1,7.1 -9.8,8.2 -0.4,0.2 -0.8,0.3 -1.2,0.3 -1.4,0 -2.6,-1 -2.6,-1 0,0 -1.1,0.8 -1.7,2.2 -0.7,1.4 -0.3,2.7 -0.2,3 0,0.2 -0.3,0.2 -0.7,0.2 -0.6,0 -1.2,-0.1 -1.2,-0.1 l 0.1,-2.5 -5.2,-0.1 0.1,2.2 c 0,0 -0.7,-0.2 -1.6,-1.4 -0.9,-1.2 -0.6,-3.4 -0.6,-3.4 l -5.5,-0.1 -0.2,2.9 c 0,0 -1.3,-1.2 -2.1,-3.3 -0.8,-2.1 -0.1,-4.7 -0.1,-4.7 l -2.6,0.1 0.3,-2.5 c 0,0 -0.7,-0.2 -1.7,-0.2 -0.3,0 -0.6,0 -0.9,0.1 -1.2,0.2 -2.1,2.1 -2.1,2.1 l -0.7,2.9 c 0,0 -0.2,-0.7 -0.8,-2.2 -0.7,-1.6 -1.6,-2.8 -1.6,-2.8 l -3.2,2.8 0.2,7.6 2.6,0.8 v 8.8 c 0,0 -1.2,-0.2 -4,-0.2 0,0 0,0 -0.1,0 -2.7,0 -3.3,2.8 -3.3,2.8 l 0.1,5.6 c 0,0 -0.8,-0.3 -1.6,-0.3 -0.3,0 -0.7,0.1 -1,0.3 -0.9,0.7 0,2.9 0,2.9 0,0 2.6,0.6 2.6,3.4 0,2.8 -2.9,3.6 -2.9,3.6 0,0 -0.3,-0.6 -1.2,-0.6 -0.1,0 -0.2,0 -0.4,0.1 -0.6,0.2 -1.7,0.7 -2.9,3.5 -1.2,2.8 -2.8,7.6 -2.8,7.6 0,0 1.6,1.3 3.5,4.5 1.8,3.2 3.2,7.6 3.2,7.6 l 1,7.9 5,4.5 -2.8,4.9 -2.5,-0.2 c 0,0 -0.8,1.7 -2.1,6.3 -1.2,4.5 2.2,6.4 2.2,6.4 l -0.2,7.8 -2.6,5.4 v 0 c 0.2,0 1.8,0 4,1.3 2.2,1.4 3.1,3.7 3.1,3.7 l 5.9,-2.5 2.5,3.1 3.4,-3.6 -3.1,-2.1 7.2,-2.1 4.8,6.9 5.5,-2.3 4.8,2.6 2.1,1.6 5.5,0.9 c 0,0 0.2,-1.6 2.1,-2.6 0.5,-0.2 1.1,-0.4 1.5,-0.4 1.2,0 1.9,0.7 1.9,0.7 l 7.4,-7.3 5.4,-0.3 -0.2,-2.7 h 4.5 l -3,7.8 h 8.5 l 4.5,4.4 0.3,-4.8 2.2,0.1 0.2,0.3 c -1.3,-2.5 -3,-4.7 -5,-6.9 -11.6,-9.9 -29.1,-20.4 -45.5,-34 0,0 -2.4,-4.4 40.7,21.3 0,0 34.2,14.4 -11.6,-42.7 0,0 21.7,10.9 35.9,39.1 -0.1,-10.4 -1,-21.7 -4.1,-27.8 -2.8,-5.5 -7.3,-16.4 -26.8,-31.8 0,0 4.2,2 27.4,16.5 0,0 4,-4 -7.7,-28.2 0,0 19.7,15.5 21,47.7 12.6,-31.1 44.2,-38.5 44.2,-38.5 -36.3,30.1 -24.9,30.8 -24.9,30.8 1.8,0.7 29.3,-7.2 39.1,-10 h 0.1 l 0.4,0.5 c -9.5,4.8 -16.8,7.8 -22.5,10.7 -9.3,6.4 -14.9,15.2 -19.7,24.5 -2.8,5.5 -6.7,16.8 -9.9,27.3 -2.6,10.4 -4.7,19.4 -5.2,21.2 0.6,7.4 0.6,15.4 -0.2,24 3.1,0.7 6.3,0.7 6.3,0.7 l 10.7,-0.2 0.2,-9.3 9.3,-0.4 -2.8,2.6 5.1,5.3 0.2,3.8 2.5,2.1 0.2,-2.7 c 0,0.2 0.1,1 1.8,3.3 2.1,2.7 5.9,4 5.9,4 l 2.1,-2.6 3.1,2.3 5,-2.2 4.3,5 v 0 c -0.1,0 -0.6,0.1 -2.3,2.4 -1.8,2.5 -2.6,4.5 -2.6,4.5 l -2.2,-2.1 c 0,0 -0.5,1.7 -0.6,3.6 -0.1,1.9 0.2,4 0.2,4 h 2.6 l 2.6,5 c 0,0 0,0.6 -0.1,2 -0.1,1.4 0.1,2.6 0.1,2.6 l -3,2.6 3.2,3.1 c 0,0 2.8,0.3 5.1,0.3 2.3,0 5.5,-0.3 5.5,-0.3 l 2.1,-3.3 h -2.3 c 0,0 0.6,-0.9 1.5,-2.1 0.9,-1.2 1.2,-2.2 1.2,-2.2 l 1.7,2.4 h 0.3 v -2.2 h 2.4 l 2.2,2.5 c 0,0 0.1,0.1 0.3,0.1 0.2,0 0.7,-0.1 1.1,-0.5 0.8,-0.7 -0.4,-2.1 -0.4,-2.1 l 4.9,-2.1 -2.7,-3.5 -5,0.1 c 0,0 -1.9,-5 -2.5,-7.3 -0.6,-2.3 -0.5,-5.1 -0.5,-5.1 l 0.2,-2.1 c 0,0 0.8,-0.5 2,-0.5 1.2,0 2.6,0.6 2.6,0.6 l 0.2,-3.1 1.5,-0.2 c 0,0 -0.6,1.7 0.9,2.6 0.6,0.3 1.2,0.4 1.6,0.4 0.7,0 1.3,-0.2 1.3,-0.2 l 0.2,-2.1 9.3,0.1 c 0,0 0.1,0 0.2,0 0.2,0 0.9,-0.2 2.2,-1.7 1.8,-2.1 0.4,-4.6 0.4,-4.6 l 0.4,-1.8 c 0,0 1.5,0.6 2.6,0.6 0.2,0 0.3,0 0.5,0 1.1,0 2.2,-0.1 2.2,-0.1 l -2.6,-3.1 4.7,-5 -2.2,-3.1 4.5,-4 0.3,-5.4 4.8,-2.6 v -4.2 l 2.7,1.7 4.5,-6.9 0.6,-3.2 c 0,0 -0.4,-0.2 1.6,-0.7 2.1,-0.5 3.2,-1.7 3.2,-1.7 l -0.5,-2.2 c 0,0 1.2,-0.1 4.1,-0.3 0.5,-0.1 1,-0.1 1.5,-0.1 1.9,0 2.9,0.3 2.9,0.3 l 11,-13.7 z m -167,-24.9 c 3.9,0 7.1,3.2 7.3,7.2 0.2,4 -2.8,7.1 -6.7,7.1 -3.9,0 -7.2,-3.2 -7.4,-7.2 0,-4 2.9,-7.2 6.8,-7.1 z m 13.5,-44.6 c 2.2,0.1 4.2,2 4.3,4.3 0.1,2.3 -1.7,4.1 -4,4.1 -2.2,-0.1 -4.2,-2 -4.3,-4.3 -0.1,-2.4 1.7,-4.2 4,-4.1 z m 55.2,18.2 c -0.7,2.5 -3.4,3.8 -5.9,3 -2.5,-0.8 -3.8,-3.6 -3.1,-6.1 0.7,-2.5 3.4,-3.8 5.9,-3 2.7,0.9 4,3.7 3.1,6.1 z" />

	
	
	
	
	
	
	
	
	
	
	
	
	
	
	
	
	
	
	
	
	
	
	
	
	
	
	
	
	
	
	
	
	
	
	
	
	
	
	
	
	
	
	
	
	
	
	
	
	
	
	
	
</defs>
  <sodipodi:namedview
     inkscape:window-maximized="1"
     inkscape:window-y="-8"
     inkscape:window-x="-8"
     inkscape:window-height="1017"
     inkscape:window-width="1920"
     showgrid="false"
     inkscape:document-rotation="0"
     inkscape:current-layer="layer1"
     inkscape:document-units="mm"
     inkscape:cy="717.64477"
     inkscape:cx="502.17161"
     inkscape:zoom="0.49497475"
     inkscape:pageshadow="2"
     inkscape:pageopacity="0.0"
     borderopacity="1.0"
     bordercolor="#666666"
     pagecolor="#ffffff"
     id="base" />
  <metadata
     id="metadata5">
    <rdf:RDF>
      <cc:Work
         rdf:about="">
        <dc:format>image/svg+xml</dc:format>
        <dc:type
           rdf:resource="http://purl.org/dc/dcmitype/StillImage" />
        <dc:title></dc:title>
      </cc:Work>
    </rdf:RDF>
  </metadata>
  <g
     transform="translate(-1.0799127,-1.1944041)"
     id="layer1"
     inkscape:groupmode="layer"
     inkscape:label="Layer 1">
    <g
       transform="matrix(0.8295514,0,0,0.8295514,-1395.9676,-84.166435)"
       id="g871">
		<g
   id="g850">
			
				<linearGradient
   gradientTransform="matrix(1.3439,0,0,-1.3439,74.302,1075.0883)"
   y2="638.60577"
   x2="1382.4319"
   y1="638.60577"
   x1="1198.0392"
   gradientUnits="userSpaceOnUse"
   id="SVGID_1_">
				<stop
   id="stop833"
   style="stop-color:#FFD87D"
   offset="0.2" />

				<stop
   id="stop835"
   style="stop-color:#E4C375"
   offset="0.277" />

				<stop
   id="stop837"
   style="stop-color:#B19D64"
   offset="0.4293" />

				<stop
   id="stop839"
   style="stop-color:#888156"
   offset="0.55" />

				<stop
   id="stop841"
   style="stop-color:#777048"
   offset="0.5976" />

				<stop
   id="stop843"
   style="stop-color:#6A633E"
   offset="0.6537" />

				<stop
   id="stop845"
   style="stop-color:#665F3A"
   offset="0.7" />

			</linearGradient>

			<path
   id="path848"
   d="m 1928.6,236.1 2.6,-5 c 0,0 -6.8,-3.6 -7.5,-7.4 -0.7,-3.7 2.5,-4.6 2.5,-4.6 l -5.4,-10.3 -15.4,-10.2 -10.7,2.8 2.5,2.6 c 0,0 -1.5,1.8 -1.7,1.9 v 0 c -0.2,0 -12.1,-10 -12.1,-10 l -8,-0.2 0.1,-4.3 0.2,-3.1 -8.2,-2.2 c 0,0 0.1,0.4 -1.3,2 -0.6,0.6 -1.2,0.8 -1.8,0.8 -0.9,0 -1.7,-0.4 -1.7,-0.4 l -7.3,-4.8 -0.4,0.2 -0.8,-1 -0.3,-0.4 -3.2,-3.8 -5,-5.1 v 0 c 0.1,0 0.5,-0.2 2,-4.1 1.6,-4.3 0.6,-6.1 0.6,-6.1 l -5.4,-0.1 0.3,-17.3 -4.6,-0.1 2.1,-2.3 c 0,0 -1.4,-0.6 -2.3,-3.6 -0.9,-3.1 2.3,-5.8 2.3,-5.8 l 0.1,-8.9 -2.1,-4 -1,-0.3 0.6,-2.5 -12.6,-0.1 c 0,0 -0.4,-5.9 -3.9,-9.1 -1,-0.9 -2.6,-1 -3.2,-1 -0.2,0 -0.3,0 -0.3,0 l -0.2,-2.6 c 0,0 -1.9,-1 -5.9,-2 -1.5,-0.3 -2.8,-0.5 -3.9,-0.5 -1.8,0 -3,0.3 -3,0.3 l -7.8,12.2 -7.6,-0.1 -2.5,2.4 -7.4,-2.6 -2.8,3.4 2.6,6.9 -2.5,-0.1 -0.2,12.2 -4.7,-4.4 -8.2,-0.1 c 0,0 -2.3,1.9 -5.1,4.1 -1.2,1 -2.2,1.2 -3.1,1.2 -1.1,0 -1.7,-0.5 -1.7,-0.5 l -4.7,5 -4.5,-2.7 c 0,0 -8.1,7.1 -9.8,8.2 -0.4,0.2 -0.8,0.3 -1.2,0.3 -1.4,0 -2.6,-1 -2.6,-1 0,0 -1.1,0.8 -1.7,2.2 -0.7,1.4 -0.3,2.7 -0.2,3 0,0.2 -0.3,0.2 -0.7,0.2 -0.6,0 -1.2,-0.1 -1.2,-0.1 l 0.1,-2.5 -5.2,-0.1 0.1,2.2 c 0,0 -0.7,-0.2 -1.6,-1.4 -0.9,-1.2 -0.6,-3.4 -0.6,-3.4 l -5.5,-0.1 -0.2,2.9 c 0,0 -1.3,-1.2 -2.1,-3.3 -0.8,-2.1 -0.1,-4.7 -0.1,-4.7 l -2.6,0.1 0.3,-2.5 c 0,0 -0.7,-0.2 -1.7,-0.2 -0.3,0 -0.6,0 -0.9,0.1 -1.2,0.2 -2.1,2.1 -2.1,2.1 l -0.7,2.9 c 0,0 -0.2,-0.7 -0.8,-2.2 -0.7,-1.6 -1.6,-2.8 -1.6,-2.8 l -3.2,2.8 0.2,7.6 2.6,0.8 v 8.8 c 0,0 -1.2,-0.2 -4,-0.2 0,0 0,0 -0.1,0 -2.7,0 -3.3,2.8 -3.3,2.8 l 0.1,5.6 c 0,0 -0.8,-0.3 -1.6,-0.3 -0.3,0 -0.7,0.1 -1,0.3 -0.9,0.7 0,2.9 0,2.9 0,0 2.6,0.6 2.6,3.4 0,2.8 -2.9,3.6 -2.9,3.6 0,0 -0.3,-0.6 -1.2,-0.6 -0.1,0 -0.2,0 -0.4,0.1 -0.6,0.2 -1.7,0.7 -2.9,3.5 -1.2,2.8 -2.8,7.6 -2.8,7.6 0,0 1.6,1.3 3.5,4.5 1.8,3.2 3.2,7.6 3.2,7.6 l 1,7.9 5,4.5 -2.8,4.9 -2.5,-0.2 c 0,0 -0.8,1.7 -2.1,6.3 -1.2,4.5 2.2,6.4 2.2,6.4 l -0.2,7.8 -2.6,5.4 v 0 c 0.2,0 1.8,0 4,1.3 2.2,1.4 3.1,3.7 3.1,3.7 l 5.9,-2.5 2.5,3.1 3.4,-3.6 -3.1,-2.1 7.2,-2.1 4.8,6.9 5.5,-2.3 4.8,2.6 2.1,1.6 5.5,0.9 c 0,0 0.2,-1.6 2.1,-2.6 0.5,-0.2 1.1,-0.4 1.5,-0.4 1.2,0 1.9,0.7 1.9,0.7 l 7.4,-7.3 5.4,-0.3 -0.2,-2.7 h 4.5 l -3,7.8 h 8.5 l 4.5,4.4 0.3,-4.8 2.2,0.1 0.2,0.3 c -1.3,-2.5 -3,-4.7 -5,-6.9 -11.6,-9.9 -29.1,-20.4 -45.5,-34 0,0 -2.4,-4.4 40.7,21.3 0,0 34.2,14.4 -11.6,-42.7 0,0 21.7,10.9 35.9,39.1 -0.1,-10.4 -1,-21.7 -4.1,-27.8 -2.8,-5.5 -7.3,-16.4 -26.8,-31.8 0,0 4.2,2 27.4,16.5 0,0 4,-4 -7.7,-28.2 0,0 19.7,15.5 21,47.7 12.6,-31.1 44.2,-38.5 44.2,-38.5 -36.3,30.1 -24.9,30.8 -24.9,30.8 1.8,0.7 29.3,-7.2 39.1,-10 h 0.1 l 0.4,0.5 c -9.5,4.8 -16.8,7.8 -22.5,10.7 -9.3,6.4 -14.9,15.2 -19.7,24.5 -2.8,5.5 -6.7,16.8 -9.9,27.3 -2.6,10.4 -4.7,19.4 -5.2,21.2 0.6,7.4 0.6,15.4 -0.2,24 3.1,0.7 6.3,0.7 6.3,0.7 l 10.7,-0.2 0.2,-9.3 9.3,-0.4 -2.8,2.6 5.1,5.3 0.2,3.8 2.5,2.1 0.2,-2.7 c 0,0.2 0.1,1 1.8,3.3 2.1,2.7 5.9,4 5.9,4 l 2.1,-2.6 3.1,2.3 5,-2.2 4.3,5 v 0 c -0.1,0 -0.6,0.1 -2.3,2.4 -1.8,2.5 -2.6,4.5 -2.6,4.5 l -2.2,-2.1 c 0,0 -0.5,1.7 -0.6,3.6 -0.1,1.9 0.2,4 0.2,4 h 2.6 l 2.6,5 c 0,0 0,0.6 -0.1,2 -0.1,1.4 0.1,2.6 0.1,2.6 l -3,2.6 3.2,3.1 c 0,0 2.8,0.3 5.1,0.3 2.3,0 5.5,-0.3 5.5,-0.3 l 2.1,-3.3 h -2.3 c 0,0 0.6,-0.9 1.5,-2.1 0.9,-1.2 1.2,-2.2 1.2,-2.2 l 1.7,2.4 h 0.3 v -2.2 h 2.4 l 2.2,2.5 c 0,0 0.1,0.1 0.3,0.1 0.2,0 0.7,-0.1 1.1,-0.5 0.8,-0.7 -0.4,-2.1 -0.4,-2.1 l 4.9,-2.1 -2.7,-3.5 -5,0.1 c 0,0 -1.9,-5 -2.5,-7.3 -0.6,-2.3 -0.5,-5.1 -0.5,-5.1 l 0.2,-2.1 c 0,0 0.8,-0.5 2,-0.5 1.2,0 2.6,0.6 2.6,0.6 l 0.2,-3.1 1.5,-0.2 c 0,0 -0.6,1.7 0.9,2.6 0.6,0.3 1.2,0.4 1.6,0.4 0.7,0 1.3,-0.2 1.3,-0.2 l 0.2,-2.1 9.3,0.1 c 0,0 0.1,0 0.2,0 0.2,0 0.9,-0.2 2.2,-1.7 1.8,-2.1 0.4,-4.6 0.4,-4.6 l 0.4,-1.8 c 0,0 1.5,0.6 2.6,0.6 0.2,0 0.3,0 0.5,0 1.1,0 2.2,-0.1 2.2,-0.1 l -2.6,-3.1 4.7,-5 -2.2,-3.1 4.5,-4 0.3,-5.4 4.8,-2.6 v -4.2 l 2.7,1.7 4.5,-6.9 0.6,-3.2 c 0,0 -0.4,-0.2 1.6,-0.7 2.1,-0.5 3.2,-1.7 3.2,-1.7 l -0.5,-2.2 c 0,0 1.2,-0.1 4.1,-0.3 0.5,-0.1 1,-0.1 1.5,-0.1 1.9,0 2.9,0.3 2.9,0.3 l 11,-13.7 z m -167,-24.9 c 3.9,0 7.1,3.2 7.3,7.2 0.2,4 -2.8,7.1 -6.7,7.1 -3.9,0 -7.2,-3.2 -7.4,-7.2 0,-4 2.9,-7.2 6.8,-7.1 z m 13.5,-44.6 c 2.2,0.1 4.2,2 4.3,4.3 0.1,2.3 -1.7,4.1 -4,4.1 -2.2,-0.1 -4.2,-2 -4.3,-4.3 -0.1,-2.4 1.7,-4.2 4,-4.1 z m 55.2,18.2 c -0.7,2.5 -3.4,3.8 -5.9,3 -2.5,-0.8 -3.8,-3.6 -3.1,-6.1 0.7,-2.5 3.4,-3.8 5.9,-3 2.7,0.9 4,3.7 3.1,6.1 z"
   fill="url(#SVGID_1_)"
   inkscape:connector-curvature="0"
   style="fill:url(#SVGID_1_)" />

		</g>

		<g
   id="g856">
			<path
   id="path852"
   d="m 1765.1,240.3 c -11.6,-9.9 -29.1,-20.4 -45.5,-34 0,0 -2.4,-4.4 40.7,21.3 0,0 34.2,14.4 -11.6,-42.7 0,0 21.7,10.9 35.9,39.1 -0.1,-10.4 -1,-21.7 -4.1,-27.8 -2.8,-5.5 -7.3,-16.4 -26.8,-31.8 0,0 4.2,2 27.4,16.5 0,0 4,-4 -7.7,-28.2 0,0 19.7,15.5 21,47.7 12.6,-31.1 44.2,-38.5 44.2,-38.5 -36.3,30.1 -24.9,30.8 -24.9,30.8 1.9,0.7 31.1,-7.7 40,-10.2 l -3.2,-3.8 -5,-5.1 v 0 c 0.1,0 0.5,-0.2 2,-4.1 1.6,-4.3 0.6,-6.1 0.6,-6.1 l -5.4,-0.1 0.3,-17.3 -4.6,-0.1 2.1,-2.3 c 0,0 -1.4,-0.6 -2.3,-3.6 -0.9,-3.1 2.3,-5.8 2.3,-5.8 l 0.1,-8.9 -2.1,-4 -1,-0.3 0.6,-2.5 -12.6,-0.1 c 0,0 -0.4,-5.9 -3.9,-9.1 -1,-0.9 -2.6,-1 -3.2,-1 -0.2,0 -0.3,0 -0.3,0 l -0.2,-2.6 c 0,0 -1.9,-1 -5.9,-2 -1.5,-0.3 -2.8,-0.5 -3.9,-0.5 -1.8,0 -3,0.3 -3,0.3 l -7.8,12.2 -7.6,-0.1 -2.5,2.4 -7.4,-2.6 -2.8,3.4 2.6,6.9 -2.5,-0.1 -0.2,12.2 -4.7,-4.4 -8.2,-0.1 c 0,0 -2.3,1.9 -5.1,4.1 -1.2,1 -2.2,1.2 -3.1,1.2 -1.1,0 -1.7,-0.5 -1.7,-0.5 l -4.7,5 -4.5,-2.7 c 0,0 -8.1,7.1 -9.8,8.2 -0.4,0.2 -0.8,0.3 -1.2,0.3 -1.4,0 -2.6,-1 -2.6,-1 0,0 -1.1,0.8 -1.7,2.2 -0.7,1.4 -0.3,2.7 -0.2,3 0,0.2 -0.3,0.2 -0.7,0.2 -0.6,0 -1.2,-0.1 -1.2,-0.1 l 0.1,-2.5 -5.2,-0.1 0.1,2.2 c 0,0 -0.7,-0.2 -1.6,-1.4 -0.9,-1.2 -0.6,-3.4 -0.6,-3.4 l -5.5,-0.1 -0.2,2.9 c 0,0 -1.3,-1.2 -2.1,-3.3 -0.8,-2.1 -0.1,-4.7 -0.1,-4.7 l -2.6,0.1 0.3,-2.5 c 0,0 -0.7,-0.2 -1.7,-0.2 -0.3,0 -0.6,0 -0.9,0.1 -1.2,0.2 -2.1,2.1 -2.1,2.1 l -0.7,2.9 c 0,0 -0.2,-0.7 -0.8,-2.2 -0.7,-1.6 -1.6,-2.8 -1.6,-2.8 l -3.2,2.8 0.2,7.6 2.6,0.8 v 8.9 c 0,0 -1.2,-0.2 -4,-0.2 0,0 0,0 -0.1,0 -2.7,0 -3.3,2.8 -3.3,2.8 l 0.1,5.6 c 0,0 -0.8,-0.3 -1.6,-0.3 -0.3,0 -0.7,0.1 -1,0.3 -0.9,0.7 0,2.9 0,2.9 0,0 2.6,0.6 2.6,3.4 0,2.8 -2.9,3.6 -2.9,3.6 0,0 -0.3,-0.6 -1.2,-0.6 -0.1,0 -0.2,0 -0.4,0.1 -0.6,0.2 -1.7,0.7 -2.9,3.5 -1.2,2.8 -2.8,7.6 -2.8,7.6 0,0 1.6,1.3 3.5,4.5 1.8,3.2 3.2,7.6 3.2,7.6 l 1,7.9 5,4.5 -2.8,4.9 -2.5,-0.2 c 0,0 -0.8,1.7 -2.1,6.3 -1.2,4.5 2.2,6.4 2.2,6.4 l -0.2,7.8 -2.6,5.4 v 0 c 0.2,0 1.8,0 4,1.3 2.2,1.4 3.1,3.7 3.1,3.7 l 5.9,-2.5 2.5,3.1 3.4,-3.6 -3.1,-2.1 7.2,-2.1 4.8,6.9 5.5,-2.3 4.8,2.6 2.1,1.6 5.5,0.9 c 0,0 0.2,-1.6 2.1,-2.6 0.5,-0.2 1.1,-0.4 1.5,-0.4 1.2,0 1.9,0.7 1.9,0.7 l 7.4,-7.3 5.4,-0.3 -0.2,-2.7 h 4.5 l -3,7.8 h 8.5 l 4.5,4.4 0.3,-4.8 2.2,0.1 0.2,0.3 c -1.4,-2.3 -3,-4.5 -5,-6.6 z m -3.5,-29.1 c 3.9,0 7.1,3.2 7.3,7.2 0.2,4 -2.8,7.1 -6.7,7.1 -3.9,0 -7.2,-3.2 -7.4,-7.2 0,-4 2.9,-7.2 6.8,-7.1 z m 68.7,-26.4 c -0.7,2.5 -3.4,3.8 -5.9,3 -2.5,-0.8 -3.8,-3.6 -3.1,-6.1 0.7,-2.5 3.4,-3.8 5.9,-3 2.7,0.9 4,3.7 3.1,6.1 z m -55.2,-18.2 c 2.2,0.1 4.2,2 4.3,4.3 0.1,2.3 -1.7,4.1 -4,4.1 -2.2,-0.1 -4.2,-2 -4.3,-4.3 -0.1,-2.4 1.7,-4.2 4,-4.1 z"
   fill="none"
   inkscape:connector-curvature="0" />

			<path
   id="path854"
   d="m 1928.6,236.1 2.6,-5 c 0,0 -6.8,-3.6 -7.5,-7.4 -0.7,-3.7 2.5,-4.6 2.5,-4.6 l -5.4,-10.3 -15.4,-10.2 -10.7,2.8 2.5,2.6 c 0,0 -1.5,1.8 -1.7,1.9 v 0 c -0.2,0 -12.1,-10 -12.1,-10 l -8,-0.2 0.1,-4.3 0.2,-3.1 -8.2,-2.2 c 0,0 0.1,0.4 -1.3,2 -0.6,0.6 -1.2,0.8 -1.8,0.8 -0.9,0 -1.7,-0.4 -1.7,-0.4 l -7.3,-4.8 -0.4,0.2 -0.8,-1 c -9.8,5 -17.3,8.1 -23.2,11.1 -9.3,6.4 -14.9,15.2 -19.7,24.5 -2.8,5.5 -6.7,16.8 -9.9,27.3 -2.6,10.4 -4.7,19.4 -5.2,21.2 0.6,7.4 0.6,15.4 -0.2,24 3.1,0.7 6.3,0.7 6.3,0.7 l 10.7,-0.2 0.2,-9.3 9.3,-0.4 -2.8,2.6 5.1,5.3 0.2,3.8 2.5,2.1 0.2,-2.7 c 0,0.2 0.1,1 1.8,3.3 2.1,2.7 5.9,4 5.9,4 l 2.1,-2.6 3.1,2.3 5,-2.2 4.3,5 v 0 c -0.1,0 -0.6,0.1 -2.3,2.4 -1.8,2.5 -2.6,4.5 -2.6,4.5 l -2.2,-2.1 c 0,0 -0.5,1.7 -0.6,3.6 -0.1,1.9 0.2,4 0.2,4 h 2.6 l 2.6,5 c 0,0 0,0.6 -0.1,2 -0.1,1.4 0.1,2.6 0.1,2.6 l -3,2.6 3.2,3.1 c 0,0 2.8,0.3 5.1,0.3 2.3,0 5.5,-0.3 5.5,-0.3 l 2.1,-3.3 h -2.3 c 0,0 0.6,-0.9 1.5,-2.1 0.9,-1.2 1.2,-2.2 1.2,-2.2 l 1.7,2.4 h 0.3 V 323 h 2.4 l 2.2,2.5 c 0,0 0.1,0.1 0.3,0.1 0.2,0 0.7,-0.1 1.1,-0.5 0.8,-0.7 -0.4,-2.1 -0.4,-2.1 l 4.9,-2.1 -2.7,-3.5 -5,0.1 c 0,0 -1.9,-5 -2.5,-7.3 -0.6,-2.3 -0.5,-5.1 -0.5,-5.1 l 0.2,-2.1 c 0,0 0.8,-0.5 2,-0.5 1.2,0 2.6,0.6 2.6,0.6 l 0.2,-3.1 1.5,-0.2 c 0,0 -0.6,1.7 0.9,2.6 0.6,0.3 1.2,0.4 1.6,0.4 0.7,0 1.3,-0.2 1.3,-0.2 l 0.2,-2.1 9.3,0.1 c 0,0 0.1,0 0.2,0 0.2,0 0.9,-0.2 2.2,-1.7 1.8,-2.1 0.4,-4.6 0.4,-4.6 l 0.4,-1.8 c 0,0 1.5,0.6 2.6,0.6 0.2,0 0.3,0 0.5,0 1.1,0 2.2,-0.1 2.2,-0.1 l -2.6,-3.1 4.7,-5 -2.2,-3.1 4.5,-4 0.3,-5.4 4.8,-2.6 v -4.2 l 2.7,1.7 4.5,-6.9 0.6,-3.2 c 0,0 -0.4,-0.2 1.6,-0.7 2.1,-0.5 3.2,-1.7 3.2,-1.7 l -0.5,-2.2 c 0,0 1.2,-0.1 4.1,-0.3 0.5,-0.1 1,-0.1 1.5,-0.1 1.9,0 2.9,0.3 2.9,0.3 l 11,-13.7 z"
   fill="none"
   inkscape:connector-curvature="0" />

		</g>

		<g
   id="g869">
			<g
   id="g867">
				
					<linearGradient
   gradientTransform="matrix(1.3439,0,0,-1.3439,74.302,1075.0883)"
   y2="689.17169"
   x2="1335.8036"
   y1="586.38037"
   x1="1233.0123"
   gradientUnits="userSpaceOnUse"
   id="SVGID_2_">
					<stop
   id="stop858"
   style="stop-color:#665F3A"
   offset="0" />

					<stop
   id="stop860"
   style="stop-color:#FFD87D"
   offset="0.5" />

					<stop
   id="stop862"
   style="stop-color:#FFE3A6"
   offset="1" />

				</linearGradient>

				<path
   id="path865"
   d="m 1852.9,330.5 c -2.3,0 -5.1,-0.3 -5.2,-0.3 h -0.1 l -3.5,-3.4 3.1,-2.6 c -0.1,-0.3 -0.2,-1.4 -0.1,-2.6 0.1,-1.2 0.1,-1.7 0.1,-1.9 l -2.5,-4.8 h -2.6 v -0.2 c 0,0 -0.3,-2.1 -0.2,-4 0.1,-1.9 0.6,-3.6 0.6,-3.6 l 0.1,-0.3 2.2,2.1 c 0.2,-0.7 1,-2.3 2.5,-4.3 0.9,-1.2 1.7,-2.1 2.1,-2.4 l -4,-4.6 -5,2.2 -3,-2.2 -2.1,2.6 -0.2,-0.1 c -0.2,-0.1 -3.9,-1.3 -5.9,-4.1 -0.8,-1.1 -1.2,-1.8 -1.5,-2.4 l -0.2,2.1 -2.8,-2.3 -0.2,-3.8 -5.3,-5.4 2.6,-2.3 -8.5,0.3 -0.2,9.3 -11.1,0.2 c -0.7,0 -3.5,-0.1 -6.1,-0.7 h -0.2 v -0.2 c 0.7,-8.3 0.7,-16.4 0.2,-24 v 0 0 c 0.4,-1.7 2.5,-10.8 5.2,-21.2 1.8,-5.9 6.5,-20.5 10,-27.3 4.2,-8.3 9.9,-17.8 19.7,-24.6 2.4,-1.2 4.9,-2.3 7.8,-3.7 4.2,-1.9 8.9,-4.1 14.5,-6.9 l -0.2,-0.2 c -10.5,3.1 -35.1,10.1 -38.7,10.1 -0.2,0 -0.3,0 -0.4,-0.1 -0.2,0 -1.3,-0.2 -1.7,-1.3 -0.9,-2.7 2.9,-10.1 25.9,-29.2 -5.3,1.6 -31.8,10.5 -43.1,38.2 l -0.3,0.9 v -1 c -1.1,-28.2 -16.6,-43.8 -20.2,-47 11.1,23.3 7.4,27.4 7.2,27.6 l -0.1,0.1 -0.2,-0.1 c -15.2,-9.4 -22.3,-13.6 -25.4,-15.4 16.6,13.4 21.6,23.5 24.3,29 0.2,0.5 0.5,1 0.7,1.4 2.6,5.1 4,14.5 4.1,27.9 v 0.9 l -0.4,-0.8 c -12.3,-24.6 -30.6,-36.2 -34.9,-38.6 17.7,22.1 25.4,36.1 22.7,41.5 -0.7,1.6 -2.4,2.4 -4.8,2.4 -3.4,0 -7.1,-1.6 -7.3,-1.7 -32.7,-19.5 -39.1,-21.6 -40.3,-21.6 h -0.1 c 8.6,7.1 17.7,13.5 25.6,19.2 7.4,5.2 14.3,10.1 19.8,14.8 2.1,2.2 3.7,4.5 5,6.9 l -0.3,0.2 -0.2,-0.2 -2,-0.1 -0.4,5 -5,-4.7 h -8.7 l 3,-7.8 h -4 l 0.2,2.6 -5.5,0.3 -7.4,7.4 -0.2,-0.1 c 0,0 -0.7,-0.6 -1.8,-0.6 -0.5,0 -0.9,0.1 -1.4,0.3 -1.7,0.9 -2,2.4 -2,2.4 v 0.2 l -5.8,-1 -2.1,-1.6 -4.6,-2.6 -5.5,2.4 -4.8,-6.9 -6.6,1.9 2.9,1.9 -3.7,3.9 -2.6,-3.1 -5.9,2.6 -0.1,-0.2 c 0,0 -0.9,-2.3 -3.1,-3.6 -2.1,-1.2 -3.6,-1.3 -3.9,-1.3 h -0.3 l 0.2,-0.3 2.6,-5.3 0.2,-7.6 c -0.6,-0.4 -3.3,-2.4 -2.1,-6.6 1.2,-4.5 2.1,-6.2 2.1,-6.3 l 0.1,-0.1 2.5,0.2 2.6,-4.6 -4.9,-4.5 -1.1,-8 c 0,0 -1.4,-4.4 -3.1,-7.5 -1.8,-3.1 -3.4,-4.5 -3.4,-4.5 l -0.1,-0.1 0.1,-0.2 c 0,-0.1 1.7,-4.8 2.8,-7.6 0.9,-2.1 1.9,-3.3 3,-3.6 0.2,0 0.3,-0.1 0.4,-0.1 0.7,0 1.1,0.3 1.2,0.5 0.6,-0.2 2.6,-1 2.6,-3.3 0,-2.6 -2.4,-3.1 -2.5,-3.2 h -0.1 l -0.1,-0.1 c -0.1,-0.2 -1,-2.4 0,-3.1 0.3,-0.2 0.7,-0.3 1.2,-0.3 0.5,0 1.1,0.2 1.4,0.2 L 1694,163 c 0,-0.1 0.7,-3 3.6,-3 h 0.1 c 2.1,0 3.3,0.2 3.7,0.2 v -8.5 l -2.6,-0.8 -0.2,-7.8 3.5,-3 0.2,0.2 c 0,0.1 1,1.2 1.7,2.8 0.2,0.7 0.5,1.2 0.6,1.5 l 0.5,-2.1 c 0.1,-0.2 1,-2 2.3,-2.3 0.2,-0.1 0.6,-0.1 1,-0.1 0.9,0 1.7,0.2 1.7,0.2 l 0.2,0.1 -0.3,2.4 2.7,-0.1 -0.1,0.2 c 0,0 -0.7,2.5 0.1,4.5 0.6,1.5 1.3,2.5 1.8,2.9 l 0.2,-2.6 5.9,0.1 v 0.2 c 0,0 -0.2,2.1 0.6,3.2 0.5,0.7 1,1 1.2,1.2 l -0.1,-2.1 5.7,0.1 -0.1,2.5 c 0.2,0 0.7,0.1 1,0.1 0.3,0 0.4,0 0.5,0 v 0 c -0.1,-0.5 -0.3,-1.7 0.3,-3 0.7,-1.4 1.7,-2.3 1.8,-2.3 l 0.2,-0.1 0.2,0.1 c 0,0 1.2,0.9 2.6,0.9 0.4,0 0.8,-0.1 1.2,-0.3 1.7,-1 9.7,-8 9.8,-8.1 l 0.1,-0.1 4.5,2.7 4.7,-5 0.2,0.1 c 0,0 0.6,0.4 1.6,0.4 0.9,0 1.9,-0.4 2.9,-1.2 2.7,-2.2 5,-4.1 5.1,-4.1 l 0.1,-0.1 8.3,0.1 4.5,4.1 0.2,-11.9 2.3,0.1 -2.6,-6.7 3.1,-3.6 7.4,2.6 2.4,-2.4 7.6,0.1 7.8,-12.1 h 0.1 c 0.1,0 1.2,-0.3 3,-0.3 1.3,0 2.6,0.2 3.9,0.5 4,1 5.8,2 5.9,2 l 0.1,0.1 0.2,2.5 c 0.1,0 0.1,0 0.2,0 0.7,0 2.3,0.1 3.4,1.1 3.1,2.9 3.8,8 3.9,9 l 12.7,0.1 -0.6,2.6 0.9,0.3 2.1,4.1 -0.1,9.1 -0.1,0.1 c 0,0 -3.1,2.6 -2.2,5.5 0.8,3 2.1,3.5 2.1,3.6 l 0.2,0.1 -1.9,2.2 4.4,0.1 -0.3,17.3 5.3,0.1 0.1,0.1 c 0.1,0.1 1.1,2 -0.5,6.3 -1.1,2.8 -1.6,3.7 -1.9,4.1 l 4.9,5 4.4,5 0.4,-0.2 7.4,4.9 v 0 c 0,0 0.7,0.4 1.6,0.4 0.7,0 1.2,-0.2 1.7,-0.7 1.2,-1.3 1.3,-1.7 1.3,-1.8 l -0.1,-0.3 0.3,0.2 8.3,2.3 -0.2,3.3 -0.1,4 7.9,0.2 0.1,0.1 c 4.5,3.7 11.1,9.3 12.1,9.9 0.2,-0.2 0.8,-1 1.4,-1.7 l -2.6,-2.7 11.2,-2.9 15.5,10.2 v 0.1 l 5.5,10.6 -0.2,0.1 c -0.2,0 -3.1,0.8 -2.3,4.4 0.7,3.6 7.4,7.2 7.4,7.3 l 0.2,0.1 -2.6,5 3.6,2.2 -11.2,14 -0.2,-0.1 c 0,0 -1,-0.3 -2.8,-0.3 -0.5,0 -0.9,0 -1.4,0.1 -2.1,0.2 -3.4,0.3 -3.9,0.3 l 0.5,2.1 -0.1,0.1 c -0.1,0.1 -1.2,1.2 -3.3,1.7 -0.9,0.2 -1.3,0.4 -1.4,0.5 l -0.7,3.4 -4.5,7.1 -2.6,-1.7 v 4 l -4.8,2.6 -0.3,5.3 -4.4,4 2.2,3.1 -4.7,5 2.6,3.2 h -0.4 c 0,0 -1.7,0.2 -2.8,0.1 -0.9,0 -2,-0.4 -2.4,-0.5 l -0.4,1.5 c 0.2,0.4 1.2,2.9 -0.5,4.8 -1.2,1.5 -2,1.7 -2.4,1.7 -0.1,0 -0.2,0 -0.2,0 l -9,-0.1 -0.2,2 -0.1,0.1 c 0,0 -0.6,0.3 -1.4,0.3 -0.6,0 -1.2,-0.2 -1.7,-0.4 -1.2,-0.7 -1.2,-2 -1.1,-2.6 l -1,0.2 -0.2,3.1 -0.2,-0.1 c 0,0 -1.4,-0.5 -2.6,-0.5 -0.9,0 -1.6,0.3 -1.8,0.4 l -0.2,2 c 0,0 -0.1,2.8 0.5,5 0.5,2.1 2.1,6.3 2.4,7.1 l 5,-0.1 3,3.7 -4.9,2.1 c 0.3,0.5 0.9,1.6 0.2,2.2 -0.9,0.8 -1.6,0.5 -1.6,0.5 l -0.1,-0.1 -2.2,-2.4 h -2.1 v 2.2 l -0.7,0.1 -1.6,-2.1 c -0.2,0.4 -0.4,1.1 -1.1,1.9 -0.6,0.8 -1.1,1.5 -1.3,1.8 h 2.3 l -2.3,3.7 h -0.1 c -1.2,-0.6 -4.3,-0.3 -6.6,-0.3 z m -5,-0.7 c 0.4,0.1 3,0.3 5,0.3 2,0 4.8,-0.2 5.4,-0.3 l 1.8,-2.9 h -2.3 l 0.2,-0.3 c 0,0 0.6,-1 1.5,-2.1 0.9,-1.2 1.1,-2.1 1.1,-2.1 l 0.1,-0.4 2,2.6 v 0 -2.3 h 2.7 l 2.3,2.6 c 0.1,0 0.6,0.1 1.1,-0.4 0.7,-0.6 -0.4,-1.8 -0.4,-1.8 l -0.2,-0.2 4.9,-2.1 -2.5,-3.1 -5,0.1 -0.1,-0.2 c 0,-0.1 -1.9,-5 -2.5,-7.3 -0.6,-2.3 -0.5,-5.1 -0.5,-5.1 l 0.2,-2.1 0.1,-0.1 c 0,0 0.9,-0.5 2.1,-0.5 0.9,0 1.9,0.3 2.4,0.5 l 0.2,-3 1.9,-0.2 -0.1,0.3 c 0,0.1 -0.5,1.6 0.8,2.4 0.5,0.2 1,0.4 1.5,0.4 0.5,0 1,-0.2 1.2,-0.2 l 0.2,-2.1 9.5,0.1 h 0.1 c 0,0 0,0 0.1,0 0.2,0 0.7,-0.1 2.1,-1.6 1.7,-1.9 0.4,-4.4 0.4,-4.4 v -0.1 l 0.5,-2.1 0.2,0.1 c 0,0 1.4,0.6 2.5,0.6 0.7,0 1.7,0 2.3,-0.1 l -2.4,-2.9 4.7,-5 -2.2,-3.1 4.5,-4 0.3,-5.4 4.8,-2.6 v -4.5 l 2.9,1.8 4.3,-6.8 0.6,-3.1 c 0,0 0,-0.1 0,-0.2 0,-0.2 0.2,-0.4 1.8,-0.8 1.6,-0.4 2.7,-1.2 3.1,-1.5 l -0.5,-2.4 h 0.2 c 0,0 1.2,-0.1 4.1,-0.3 0.5,-0.1 1,-0.1 1.5,-0.1 1.6,0 2.5,0.2 2.8,0.3 l 10.7,-13.5 -3.5,-2.2 2.6,-5 c -1.1,-0.7 -6.7,-4 -7.4,-7.4 -0.7,-3.3 1.7,-4.5 2.4,-4.8 l -5.2,-10.1 -15.3,-10.1 -10.2,2.7 2.3,2.6 -0.1,0.2 c -0.5,0.6 -1.3,1.6 -1.6,1.8 v 0.1 h -0.2 c -0.1,0 -0.3,0 -12.2,-10 l -8.2,-0.2 0.1,-4.5 0.2,-3 -7.8,-2.1 c -0.1,0.3 -0.4,0.8 -1.3,1.8 -0.5,0.6 -1.2,0.8 -2,0.8 -0.9,0 -1.7,-0.4 -1.7,-0.5 l -7.2,-4.7 -0.5,0.2 -4.5,-5.3 -5.4,-5.5 h 0.4 c 0.1,-0.1 0.6,-0.7 1.8,-4 1.3,-3.6 0.7,-5.5 0.6,-5.9 l -5.5,-0.1 0.3,-17.3 -4.9,-0.1 2.1,-2.5 c -0.5,-0.3 -1.5,-1.2 -2.1,-3.6 -0.8,-3 1.8,-5.5 2.3,-5.9 l 0.1,-8.8 -2.1,-4 -1.1,-0.4 0.6,-2.4 -12.6,-0.1 v -0.2 c 0,-0.1 -0.5,-5.9 -3.8,-8.9 -0.9,-0.8 -2.5,-1 -3.1,-1 -0.2,0 -0.3,0 -0.3,0 h -0.2 l -0.2,-2.7 c -0.4,-0.2 -2.3,-1.1 -5.7,-1.9 -1.2,-0.3 -2.6,-0.5 -3.8,-0.5 -1.5,0 -2.6,0.2 -2.8,0.3 l -7.8,12.2 -7.6,-0.1 -2.5,2.4 -7.4,-2.6 -2.6,3.2 2.7,7.1 -2.6,-0.1 -0.2,12.5 -5,-4.6 -8,-0.1 c -0.4,0.3 -2.5,2.1 -5,4.1 -1.1,0.8 -2.1,1.3 -3.1,1.3 -0.8,0 -1.4,-0.2 -1.7,-0.4 l -4.7,5 -4.5,-2.7 c -1,0.9 -8.1,7.1 -9.7,8.1 -0.4,0.2 -0.9,0.3 -1.4,0.3 -1.2,0 -2.3,-0.7 -2.6,-0.9 -0.2,0.2 -1.1,1 -1.6,2.1 -0.6,1.2 -0.3,2.3 -0.2,2.7 0,0.1 0,0.1 0,0.2 0,0.1 0,0.2 -0.1,0.2 -0.1,0.1 -0.2,0.2 -0.9,0.2 -0.6,0 -1.2,-0.1 -1.2,-0.1 h -0.2 l 0.1,-2.4 -4.8,-0.1 0.1,2.3 -0.2,-0.1 c 0,0 -0.7,-0.2 -1.7,-1.5 -0.7,-1 -0.7,-2.7 -0.7,-3.3 l -5,-0.1 -0.2,3.1 -0.3,-0.2 c -0.1,-0.1 -1.3,-1.2 -2.2,-3.4 -0.7,-1.8 -0.3,-3.8 -0.2,-4.5 l -2.6,0.1 0.3,-2.6 c -0.2,-0.1 -0.8,-0.2 -1.4,-0.2 -0.3,0 -0.6,0 -0.8,0.1 -1.1,0.2 -2,2 -2,2 l -0.8,3.8 -0.2,-0.9 c 0,0 -0.2,-0.7 -0.8,-2.2 -0.5,-1.2 -1.2,-2.1 -1.4,-2.6 l -3,2.6 0.2,7.4 2.6,0.8 v 9.3 h -0.2 c 0,0 -1.2,-0.2 -4,-0.2 -2.6,0 -3.1,2.6 -3.1,2.6 l 0.1,5.9 -0.3,-0.2 c 0,0 -0.7,-0.3 -1.5,-0.3 -0.3,0 -0.7,0.1 -0.9,0.2 -0.6,0.5 -0.2,2 0.1,2.6 0.5,0.2 2.6,0.9 2.6,3.6 0,3 -3,3.7 -3.1,3.7 h -0.2 l -0.1,-0.2 c 0,0 -0.3,-0.4 -1,-0.4 -0.1,0 -0.2,0 -0.3,0.1 -1,0.2 -1.9,1.3 -2.7,3.3 -1.1,2.6 -2.5,6.7 -2.8,7.4 0.4,0.3 1.8,1.7 3.4,4.5 1.8,3.1 3.2,7.5 3.2,7.6 l 1,7.9 5,4.6 -3,5.1 -2.5,-0.2 c -0.2,0.5 -1,2.3 -2,6.1 -1.2,4.4 2,6.1 2.1,6.2 l 0.1,0.1 -0.2,8 -2.6,5.1 c 0.7,0.1 2,0.3 3.7,1.3 1.9,1.2 2.9,3.1 3.1,3.6 l 5.8,-2.5 2.5,3 3.1,-3.2 -3.2,-2.1 7.8,-2.2 4.8,6.9 5.4,-2.3 4.9,2.6 2.1,1.5 5.3,0.8 c 0.2,-0.5 0.7,-1.7 2.1,-2.5 0.5,-0.2 1.1,-0.4 1.6,-0.4 0.9,0 1.7,0.4 1.9,0.6 l 7.3,-7.2 h 0.1 l 5.1,-0.2 -0.2,-2.7 h 5 l -3,7.8 h 8.3 l 4.3,4.1 0.3,-4.5 2.1,0.1 c -1.2,-2.1 -2.7,-4.2 -4.5,-6.2 -5.5,-4.7 -12.5,-9.6 -19.7,-14.8 -8,-5.7 -17.1,-12.1 -25.8,-19.2 l -0.1,-0.1 c -0.1,-0.1 -0.1,-0.2 0,-0.4 0.1,-0.2 0.2,-0.2 0.5,-0.2 1.6,0 8.9,2.8 40.5,21.6 0,0 3.8,1.6 7.1,1.6 2.2,0 3.7,-0.7 4.4,-2.1 3.1,-6.6 -11,-26.3 -23.4,-41.8 l -0.6,-0.7 0.8,0.4 c 0.2,0.1 21.6,11.1 35.6,38.5 -0.2,-12.8 -1.6,-21.8 -4,-26.8 -0.2,-0.4 -0.5,-0.9 -0.7,-1.4 -3,-6 -8.1,-16.2 -26,-30.3 l -1.5,-1.2 1.7,0.8 c 0.1,0 4.5,2.1 27.3,16.4 0.2,-0.4 0.7,-1.7 0.3,-5 -0.4,-3.6 -2.2,-10.7 -8.2,-23 l -0.4,-0.8 0.7,0.6 c 0.2,0.2 19.5,15.6 21.1,47 12.8,-30.1 43.6,-37.7 43.9,-37.7 l 0.8,-0.2 -0.7,0.6 c -24.7,20.5 -27.2,27.2 -26.5,29.3 0.3,1 1.4,1.1 1.4,1.1 h 0.1 c 0,0 0.1,0 0.2,0 3.7,0 30.6,-7.7 38.7,-10.1 l 0.2,-0.1 0.7,0.8 -0.2,0.1 c -5.6,2.8 -10.5,5 -14.7,7 -2.9,1.3 -5.5,2.5 -7.8,3.6 -9.7,6.7 -15.4,16.1 -19.6,24.4 -3.5,6.8 -8.1,21.3 -9.9,27.3 -2.6,10.3 -4.7,19.4 -5.1,21.2 0.6,7.6 0.5,15.6 -0.2,23.9 2.6,0.6 5.1,0.7 5.9,0.7 h 0.2 l 10.5,-0.2 0.2,-9.3 10,-0.4 -3.1,2.8 5,5.1 0.2,3.7 2.1,1.7 0.2,-2.3 h 0.4 c 0,0.1 0.1,0.8 1.7,3.1 1.7,2.4 5,3.6 5.6,3.9 l 2.2,-2.6 3.1,2.3 5,-2.3 4.7,5.5 h -0.4 c 0,0 -0.5,0.1 -2.1,2.3 -1.8,2.5 -2.5,4.5 -2.5,4.5 l -0.1,0.3 -2.2,-2.1 c -0.2,0.6 -0.4,1.8 -0.5,3.2 -0.1,1.6 0.1,3.2 0.2,3.8 h 2.5 l 2.6,5.2 c 0,0 0,0.6 -0.1,2 -0.1,1.3 0.1,2.6 0.1,2.6 v 0.1 l -2.9,2.5 z m -85.7,-104.2 c -4,0 -7.4,-3.3 -7.5,-7.4 -0.1,-2 0.6,-3.8 2,-5.2 1.3,-1.3 3.1,-2.1 5,-2.1 h 0.1 c 4,0 7.4,3.3 7.5,7.4 0.1,2 -0.6,3.8 -2,5.2 -1.4,1.4 -3.2,2.1 -5.1,2.1 z m -0.6,-14.4 v 0.2 c -1.8,0 -3.5,0.7 -4.7,2 -1.2,1.3 -1.9,3.1 -1.8,5 0.2,3.8 3.4,6.9 7.1,6.9 1.8,0 3.5,-0.7 4.7,-2 1.2,-1.3 1.9,-3.1 1.8,-5 -0.2,-3.8 -3.3,-6.9 -7.1,-6.9 z m 64.5,-23 c -0.6,0 -1.1,-0.1 -1.6,-0.2 -2.6,-0.9 -4,-3.8 -3.1,-6.4 0.7,-2 2.5,-3.4 4.5,-3.4 0.6,0 1.1,0.1 1.7,0.2 2.6,0.9 4,3.8 3.1,6.4 -0.8,2.1 -2.6,3.4 -4.6,3.4 z m -0.3,-9.5 c -1.9,0 -3.6,1.2 -4.1,3.1 -0.7,2.4 0.6,5 2.9,5.9 0.5,0.2 1,0.2 1.5,0.2 1.9,0 3.6,-1.2 4.1,-3.1 0.7,-2.4 -0.6,-5 -2.9,-5.9 -0.5,-0.2 -1,-0.2 -1.5,-0.2 z m -50.3,-3.5 v 0 c -2.5,-0.1 -4.5,-2.1 -4.5,-4.5 -0.1,-1.2 0.3,-2.3 1.2,-3.1 0.7,-0.8 1.8,-1.2 2.9,-1.2 h 0.1 c 2.4,0.1 4.4,2.1 4.5,4.5 0.1,1.2 -0.3,2.3 -1.2,3.1 -0.8,0.8 -1.9,1.2 -3,1.2 z m -0.6,-8.4 c -1,0 -1.9,0.4 -2.6,1.1 -0.7,0.7 -1.1,1.7 -1,2.8 0.1,2.2 1.9,4 4,4.1 h 0.1 c 1,0 1.9,-0.4 2.6,-1.1 0.7,-0.7 1.1,-1.7 1,-2.8 -0.1,-2.2 -1.9,-4 -4,-4.1 z"
   fill="url(#SVGID_2_)"
   inkscape:connector-curvature="0"
   style="fill:url(#SVGID_2_)" />

			</g>

		</g>

	</g>
  </g>
</svg>
